/* XPM */
static const char *checkbox_all_xpm[] = {
/* width height num_colors chars_per_pixel */
"   128    16      256            2",
/* colors */
"`` c #ff00ff",
"`. c #85e4ff",
"`# c #4ea0d1",
"`a c #b5b5b5",
"`b c #b8b8c0",
"`c c #c3d6e5",
"`d c #cadbe8",
"`e c #cfdeea",
"`f c #deded6",
"`g c #dedede",
"`h c #e7e7de",
"`i c #e7e7e7",
"`j c #efefe7",
"`k c #efefef",
"`l c #efeff7",
"`m c #f7f7f7",
"`n c #d7d7d7",
"`o c #dddddd",
"`p c #e3ecf3",
"`q c #eff4f8",
"`r c #f7f7ef",
"`s c #eaeaea",
"`t c #f1f1f1",
"`u c #ffffff",
"`v c #54b71d",
"`w c #dedee7",
"`x c #dee7de",
"`y c #949494",
"`z c #969696",
"`A c #51b41b",
"`B c #b8b8b0",
"`C c #4daf17",
"`D c #b8b8b1",
"`E c #868686",
"`F c #48a913",
"`G c #fffff7",
"`H c #e7efe7",
"`I c #fefefe",
"`J c #43a20f",
"`K c #3e9c0a",
"`L c #808080",
"`M c #399606",
"`N c #359102",
"`O c #777777",
"`P c #000000",
"`Q c #000000",
"`R c #000000",
"`S c #000000",
"`T c #000000",
"`U c #000000",
"`V c #000000",
"`W c #000000",
"`X c #000000",
"`Y c #000000",
"`Z c #000000",
"`0 c #000000",
"`1 c #000000",
"`2 c #000000",
"`3 c #000000",
"`4 c #000000",
"`5 c #000000",
"`6 c #000000",
"`7 c #000000",
"`8 c #000000",
".` c #000000",
".. c #000000",
".# c #000000",
".a c #000000",
".b c #000000",
".c c #000000",
".d c #000000",
".e c #000000",
".f c #000000",
".g c #000000",
".h c #000000",
".i c #000000",
".j c #000000",
".k c #000000",
".l c #000000",
".m c #000000",
".n c #000000",
".o c #000000",
".p c #000000",
".q c #000000",
".r c #000000",
".s c #000000",
".t c #000000",
".u c #000000",
".v c #000000",
".w c #000000",
".x c #000000",
".y c #000000",
".z c #000000",
".A c #000000",
".B c #000000",
".C c #000000",
".D c #000000",
".E c #000000",
".F c #000000",
".G c #000000",
".H c #000000",
".I c #000000",
".J c #000000",
".K c #000000",
".L c #000000",
".M c #000000",
".N c #000000",
".O c #000000",
".P c #000000",
".Q c #000000",
".R c #000000",
".S c #000000",
".T c #000000",
".U c #000000",
".V c #000000",
".W c #000000",
".X c #000000",
".Y c #000000",
".Z c #000000",
".0 c #000000",
".1 c #000000",
".2 c #000000",
".3 c #000000",
".4 c #000000",
".5 c #000000",
".6 c #000000",
".7 c #000000",
".8 c #000000",
"#` c #000000",
"#. c #000000",
"## c #000000",
"#a c #000000",
"#b c #000000",
"#c c #000000",
"#d c #000000",
"#e c #000000",
"#f c #000000",
"#g c #000000",
"#h c #000000",
"#i c #000000",
"#j c #000000",
"#k c #000000",
"#l c #000000",
"#m c #000000",
"#n c #000000",
"#o c #000000",
"#p c #000000",
"#q c #000000",
"#r c #000000",
"#s c #000000",
"#t c #000000",
"#u c #000000",
"#v c #000000",
"#w c #000000",
"#x c #000000",
"#y c #000000",
"#z c #000000",
"#A c #000000",
"#B c #000000",
"#C c #000000",
"#D c #000000",
"#E c #000000",
"#F c #000000",
"#G c #000000",
"#H c #000000",
"#I c #000000",
"#J c #000000",
"#K c #000000",
"#L c #000000",
"#M c #000000",
"#N c #000000",
"#O c #000000",
"#P c #000000",
"#Q c #000000",
"#R c #000000",
"#S c #000000",
"#T c #000000",
"#U c #000000",
"#V c #000000",
"#W c #000000",
"#X c #000000",
"#Y c #000000",
"#Z c #000000",
"#0 c #000000",
"#1 c #000000",
"#2 c #000000",
"#3 c #000000",
"#4 c #000000",
"#5 c #000000",
"#6 c #000000",
"#7 c #000000",
"#8 c #000000",
"a` c #000000",
"a. c #000000",
"a# c #000000",
"aa c #000000",
"ab c #000000",
"ac c #000000",
"ad c #000000",
"ae c #000000",
"af c #000000",
"ag c #000000",
"ah c #000000",
"ai c #000000",
"aj c #000000",
"ak c #000000",
"al c #000000",
"am c #000000",
"an c #000000",
"ao c #000000",
"ap c #000000",
"aq c #000000",
"ar c #000000",
"as c #000000",
"at c #000000",
"au c #000000",
"av c #000000",
"aw c #000000",
"ax c #000000",
"ay c #000000",
"az c #000000",
"aA c #000000",
"aB c #000000",
"aC c #000000",
"aD c #000000",
"aE c #000000",
"aF c #000000",
"aG c #000000",
"aH c #000000",
"aI c #000000",
"aJ c #000000",
"aK c #000000",
"aL c #000000",
"aM c #000000",
"aN c #000000",
"aO c #000000",
"aP c #000000",
"aQ c #000000",
"aR c #000000",
"aS c #000000",
"aT c #000000",
"aU c #000000",
"aV c #000000",
"aW c #000000",
"aX c #000000",
"aY c #000000",
"aZ c #000000",
"a0 c #000000",
"a1 c #000000",
"a2 c #000000",
"a3 c #000000",
"a4 c #000000",
"a5 c #000000",
"a6 c #000000",
"a7 c #000000",
"a8 c #000000",
/* pixels */
"`````````````````````````````````.`.`.`.`.`.`.`.`.`.`.`.`.`.`.```.`.`.`.`.`.`.`.`.`.`.`.`.`.`.```````````````````````````````````.`.`.`.`.`.`.`.`.`.`.`.`.`.`.``````````````````````````````````````````````````````````````````````````````````````````````````",
"```#`#`#`#`#`#`#`#`#`#`#`#`#`````.`#`#`#`#`#`#`#`#`#`#`#`#`#`.```.`#`#`#`#`#`#`#`#`#`#`#`#`#`.`````#`#`#`#`#`#`#`#`#`#`#`#`#`````.`#`#`#`#`#`#`#`#`#`#`#`#`#`.`````a`a`a`a`a`a`b`a`a`a`a`a`a```````a`a`a`a`a`a`a`a`a`a`a`a`a```````a`a`a`a`a`a`a`a`a`a`a`a`a````",
"```#`c`d`e`e`e`e`e`e`e`e`e`#`````.`#`c`d`e`e`e`e`e`e`e`e`e`#`.```.`#`c`d`e`e`e`e`e`e`e`e`e`#`.`````#`c`d`e`e`e`e`e`e`e`e`e`#`````.`#`c`d`e`e`e`e`e`e`e`e`e`#`.`````a`f`f`g`f`g`g`h`i`j`k`l`a```````a`g`g`g`h`h`i`i`k`k`k`m`a```````a`n`o`o`o`o`o`o`o`o`o`o`a````",
"```#`d`p`q`q`q`q`q`q`q`q`q`#`````.`#`d`p`q`q`q`q`q`q`q`q`q`#`.```.`#`d`p`q`q`q`q`q`q`q`q`q`#`.`````#`d`p`q`q`q`q`q`q`q`q`q`#`````.`#`d`p`q`q`q`q`q`q`q`q`q`#`.`````a`f`f`f`g`g`h`h`j`k`k`r`a```````a`g`g`h`h`h`i`j`k`k`r`m`a```````a`o`s`t`t`t`t`t`t`t`t`t`a````",
"```#`e`q`u`u`u`u`u`u`u`u`u`#`````.`#`e`q`u`u`u`u`u`u`u`u`u`#`.```.`#`e`q`u`u`u`u`u`u`u`v`u`#`.`````#`e`q`u`u`u`u`u`u`u`v`u`#`````.`#`e`q`u`u`u`u`u`u`u`v`u`#`.`````a`f`f`g`w`h`i`j`k`k`r`m`a```````a`g`x`y`y`y`y`y`y`y`m`m`a```````a`o`t`u`u`u`u`u`u`u`z`u`a````",
"```#`e`q`u`u`u`u`u`u`u`u`u`#`````.`#`e`q`u`u`u`u`u`u`u`u`u`#`.```.`#`e`q`u`u`u`u`u`u`A`A`u`#`.`````#`e`q`u`u`u`u`u`u`A`A`u`#`````.`#`e`q`u`u`u`u`u`u`A`A`u`#`.`````a`f`g`g`h`i`j`k`k`m`m`m`a```````a`h`h`y`y`y`y`y`y`y`m`m`a```````B`o`t`u`u`u`u`u`u`z`z`u`a````",
"```#`e`q`u`u`u`u`u`u`u`u`u`#`````.`#`e`q`u`u`u`u`u`u`u`u`u`#`.```.`#`e`q`u`u`u`u`u`C`C`C`u`#`.`````#`e`q`u`u`u`u`u`C`C`C`u`#`````.`#`e`q`u`u`u`u`u`C`C`C`u`#`.`````a`g`g`h`i`j`k`k`r`m`m`m`a```````a`h`h`y`y`y`y`y`y`y`m`m`a```````D`o`t`u`u`u`u`u`E`E`E`u`a````",
"```#`e`q`u`u`u`u`u`u`u`u`u`#`````.`#`e`q`u`u`u`u`u`u`u`u`u`#`.```.`#`e`F`F`u`u`u`F`F`F`u`u`#`.`````#`e`F`F`u`u`u`F`F`F`u`u`#`````.`#`e`F`F`u`u`u`F`F`F`u`u`#`.`````a`g`h`i`j`k`k`r`m`m`m`G`a```````a`i`H`y`y`y`y`y`y`y`m`I`a```````a`o`E`E`u`u`u`E`E`E`u`u`a````",
"```#`e`q`u`u`u`u`u`u`u`u`u`#`````.`#`e`q`u`u`u`u`u`u`u`u`u`#`.```.`#`e`J`J`J`u`J`J`J`u`u`u`#`.`````#`e`J`J`J`u`J`J`J`u`u`u`#`````.`#`e`J`J`J`u`J`J`J`u`u`u`#`.`````a`h`i`j`k`k`r`m`m`m`G`I`a```````a`i`j`y`y`y`y`y`y`y`I`I`a```````a`o`E`E`E`u`E`E`E`u`u`u`a````",
"```#`e`q`u`u`u`u`u`u`u`u`u`#`````.`#`e`q`u`u`u`u`u`u`u`u`u`#`.```.`#`e`q`K`K`K`K`K`u`u`u`u`#`.`````#`e`q`K`K`K`K`K`u`u`u`u`#`````.`#`e`q`K`K`K`K`K`u`u`u`u`#`.`````a`i`j`k`k`r`m`m`r`G`I`I`a```````a`j`k`y`y`y`y`y`y`y`I`I`a```````a`o`t`L`L`L`L`L`u`u`u`u`a````",
"```#`e`q`u`u`u`u`u`u`u`u`u`#`````.`#`e`q`u`u`u`u`u`u`u`u`u`#`.```.`#`e`q`u`M`M`M`u`u`u`u`u`#`.`````#`e`q`u`M`M`M`u`u`u`u`u`#`````.`#`e`q`u`M`M`M`u`u`u`u`u`#`.`````a`j`k`k`r`m`m`m`G`I`I`I`a```````a`k`k`y`y`y`y`y`y`y`I`I`a```````a`o`t`u`L`L`L`u`u`u`u`u`a````",
"```#`e`q`u`u`u`u`u`u`u`u`u`#`````.`#`e`q`u`u`u`u`u`u`u`u`u`#`.```.`#`e`q`u`u`N`u`u`u`u`u`u`#`.`````#`e`q`u`u`N`u`u`u`u`u`u`#`````.`#`e`q`u`u`N`u`u`u`u`u`u`#`.`````a`k`k`r`m`m`m`G`I`I`I`I`a```````a`k`k`m`m`m`I`G`I`I`I`I`a```````a`o`t`u`u`O`u`u`u`u`u`u`a````",
"```#`e`q`u`u`u`u`u`u`u`u`u`#`````.`#`e`q`u`u`u`u`u`u`u`u`u`#`.```.`#`e`q`u`u`u`u`u`u`u`u`u`#`.`````#`e`q`u`u`u`u`u`u`u`u`u`#`````.`#`e`q`u`u`u`u`u`u`u`u`u`#`.`````a`k`r`m`m`m`G`G`I`I`I`I`a```````a`r`m`m`m`m`I`I`I`I`I`I`a```````a`o`t`u`u`u`u`u`u`u`u`u`a````",
"```#`#`#`#`#`#`#`#`#`#`#`#`#`````.`#`#`#`#`#`#`#`#`#`#`#`#`#`.```.`#`#`#`#`#`#`#`#`#`#`#`#`#`.`````#`#`#`#`#`#`#`#`#`#`#`#`#`````.`#`#`#`#`#`#`#`#`#`#`#`#`#`.`````a`a`a`a`a`a`a`a`a`a`a`a`a```````a`a`a`a`a`a`a`a`a`a`a`a`a```````a`a`a`a`a`a`a`a`a`a`a`a`a````",
"`````````````````````````````````.`.`.`.`.`.`.`.`.`.`.`.`.`.`.```.`.`.`.`.`.`.`.`.`.`.`.`.`.`.```````````````````````````````````.`.`.`.`.`.`.`.`.`.`.`.`.`.`.``````````````````````````````````````````````````````````````````````````````````````````````````",
"````````````````````````````````````````````````````````````````````````````````````````````````````````````````````````````````````````````````````````````````````````````````````````````````````````````````````````````````````````````````````````````````"
};
