/* XPM */
static const char* CheckBox_xpm[] = {
/* columns rows colors chars-per-pixel */
"200 22 113 2",
"V  c #19555F",
"u  c #BDEDFA",
"%. c #67BCE0",
"2. c #B6EFFD",
"0  c #C2EEFB",
"y  c #E4F7FD",
"&. c #E4F7FE",
"W  c #8CCFEB",
"a  c #F5FAFD",
"|  c #ACE1F7",
"L  c #D3EEF8",
"n  c #76C2E8",
"   c #FFFFFF",
"%  c #51A3CE",
"]  c #A5DDF5",
"A  c #1A565D",
"l  c #B4E6F7",
"g  c #B9EAF8",
".. c #72C2E3",
"e  c #ECF3F8",
".  c #B0EFFD",
":  c #DBEAF6",
"<. c #E0EEF8",
"*. c #BCEBFC",
"*  c #5CB2DD",
"(  c #D9F0FA",
"M  c #A6DEF3",
"+  c #57A8D2",
"b  c #C8E7F6",
"8  c #EFF4F8",
"$  c #5FB6DA",
"i  c #C1E3F4",
"7  c #E3ECF2",
"k  c #E1F5FC",
"N  c #CBE8F7",
"`  c #7DC8E8",
"1. c #DCEBF5",
"C  c #DAF1F9",
"4  c #DCE8F1",
"t  c #F0F5FA",
">. c #60B7DB",
"~  c #F5F9FD",
"I  c #D3EDF9",
"Z  c #A0DBF1",
"O  c #C9E2F1",
"$. c #C2E4F3",
"@. c #E2F6FD",
"p  c #65B8E3",
"Y  c #F8FAFC",
"d  c #F8FAFD",
"Q  c #D6EEF9",
"m  c #DBF2FA",
"+. c #6DC0E2",
"q  c #C0E1F3",
"X  c #87E7FC",
"o  c #F6FAFD",
"o. c #B2E5F9",
";. c #CAE3F0",
":. c #CAE3F2",
"O. c #C3E5F4",
"3  c #BEE1F3",
"c  c #DEF3FB",
"}  c #DEF3FC",
"5  c #E0EAF3",
"w  c #61B5E2",
"^  c #CDEAF6",
"R  c #A3CDE7",
"H  c #9AD8EF",
"x  c #70BEE6",
";  c #A3CDE8",
"1  c #CFDEEA",
"G  c #D7EFF8",
")  c #9FD9F3",
"=. c #C1E2F2",
"9  c #E6F8FD",
"-. c #E6F8FE",
"P  c #93D4EC",
">  c #C3D6E4",
"r  c #F2F7FB",
"E  c #D0EBF7",
"J  c #D0EBF8",
"!  c #98D5F1",
"&  c #4EA0D1",
"2  c #E9F9FE",
"<  c #D0DFE9",
"U  c #91D1EF",
"s  c #FAFCFE",
"=  c #DFEEF8",
"/  c #85CCEA",
" . c #C7E7F4",
"j  c #6ABBE5",
"K  c #8ACDEE",
",. c #5EB3DE",
"'  c #DBF1FB",
"X. c #E0F5FD",
"6  c #E2ECF4",
"D  c #83C9EC",
"@  c #54A5D5",
"-  c #A5CFE9",
"#. c #B7E8FA",
"B  c #7CC5EA",
"[  c #C8E8F5",
"h  c #C3E4F5",
"f  c #E3F6FC",
",  c #CADCE7",
"T  c #85A5AC",
"S  c #CDE9F7",
"F  c #85A5AD",
"#  c #C8E2F2",
"v  c #AEE4F5",
"_  c #CBE9F6",
"z  c #C6E5F5",
"{  c #78C5E5",
/* pixels */
"                                                                                                    . X X X X X X X X X X X X X X X X X X X X X X X X X X X X X X X X X X X X X X X X X X X X X X X X . . X X X X X X X X X X X X X X X X X X X X X X X X X X X X X X X X X X X X X X X X X X X X X X X X . o o o o o o o o o o o o o o o o o o o o o o o o o o o o o o o o o o o o o o o o o o o o o o o o o   ",
"  O + + + + + + + + + + + + + + + + + + + + + + + + + + @ @ @ @ @ @ @ @ @ @ @ @ @ @ @ @ @ @ @ @ #   X $ % % % % % % % % % % % % % % % % % % % % % % % % % % % % % % % % % % % % % % % % % % % % % % $ X X $ % % % % % % % % % % % % % % % % % % % % % % % % % % & & & & & & & & & & & & & & & & & & & & * X o = - - - - - - - - - - - - - - - - - - - - - - - - - - ; ; ; ; ; ; ; ; ; ; ; ; ; ; ; ; ; ; ; ; :   ",
"  + > , < < < < < < < < < < < < < < < < < < < < < < < < 1 1 1 1 1 1 1 1 1 1 1 1 1 1 1 1 1 1 1 1 @   X % > , < < < < < < < < < < < < < < < < < < < < < < < < % 2 2 2 2 2 2 2 2 2 2 2 2 2 2 2 2 2 2 2 % X X % > , < < < < < < < < < < < < < < < < < < < < < < < < & 3 3 3 3 3 3 3 3 3 3 3 3 3 3 3 3 3 3 3 & X o - 4 5 6 6 6 6 6 6 6 6 6 6 6 6 6 6 6 6 6 6 6 6 6 6 6 6 5 5 5 5 5 5 5 5 5 5 5 5 5 5 5 5 5 5 5 5 ;   ",
"  + , 7 8 8 8 8 8 8 8 8 8 8 8 8 8 8 8 8 8 8 8 8 8 8 8 8 8 8 8 8 8 8 8 8 8 8 8 8 8 8 8 8 8 8 8 8 @   X % , 7 8 8 8 8 8 8 8 8 8 8 8 8 8 8 8 8 8 8 8 8 8 8 8 8 % 9 0 0 0 0 0 0 0 0 0 0 0 0 0 0 0 0 0 9 % X X % , 7 8 8 8 8 8 8 8 8 8 8 8 8 8 8 8 8 8 8 8 8 8 8 8 8 & q w w w w w w w w w w w w w w w w w q & X o - 5 e r r r r r r r r r r r r r r r r r r r r r r r r t t t t t t t t t t t t t t t t t t t t ;   ",
"  + < 8                                                                                         @   X % < 8                                                 % y u u u u u u u u u u u u u u u u u y % X X % < 8                                                 & i p p p p p p p p p p p p p p p p p i & X a - 6 r                                             s s d d d d d d d d d d d d d d d d d d d d ;   ",
"  + < 8                                                                                         @   X % < 8                                                 % f g g g g g g g g g g g g g g g g g f % X X % < 8                                                 & h j j j j j j j j j j j j j j j j j h & X a - 6 r                                             s s d d d d d d d d d d d d d d d d d d d d ;   ",
"  + < 8                                                                                         @   X % < 8                                                 % k l l l l l l l l l l l l l l l l l k % X X % < 8                                                 & z x x x x x x x x x x x x x x x x x z & X a - 6 r                                             s s d d d d d d d d d d d d d d d d d d d d ;   ",
"  + < 8                                                                                         @   X % < 8                                                 % c v v v v v v v v v v v v v v v v v c % X X % < 8                                                 & b n n n n n n n n n n n n n n n n n b & X a - 6 r                                             s s d d d d d d d d d d d d d d d d d d d d ;   ",
"  + < 8                                                                                         @   X % < 8                                                 % m M M M M M M M M M M M M M M M M M m % X X % < 8                                                 & N B B B B B B B B B B B B B B B B B N & X a - 6 r                                             s s d d d d d d d d d d d d d d d d d d d d ;   ",
"  + < 8                                                               V V V V V V V             @   X % < 8                                                 % C Z Z Z Z Z A A A A A A A Z Z Z Z Z C % X X % < 8                                                 & S D D D D D D D D D D D D D D D D D S & X a - 6 r                                             s s d d d d d d d F F F F F F F d d d d d d ;   ",
"  + < 8                                                                 V V V V V               @   X % < 8                                                 % G H H H H H H A A A A A H H H H H H G % X X % < 8                                                 & J K K K K K K V V V V V V V K K K K J & X a - 6 r                                             s s d d d d d d d d F F F F F d d d d d d d ;   ",
"  + < 8                                                                   V V V                 @   X % < 8                                                 % L P P P P P P P A A A P P P P P P P L % X X % < 8                                                 & I U U U U U U U V V V V V U U U U U I & X a - 6 r                                             s s Y Y Y Y Y Y Y Y Y T T T Y Y Y Y Y Y Y Y R   ",
"  + < 8                                                                     V                   @   X % < 8                                                 % E W W W W W W W W A W W W W W W W W E % X X % < 8                                                 & Q ! ! ! ! ! ! ! ! V V V ! ! ! ! ! ! Q & X ~ - 6 r                                             s s Y Y Y Y Y Y Y Y Y Y T Y Y Y Y Y Y Y Y Y R   ",
"  + < 8                                                                                         @   X % < 8                                                 % ^ / / / / / / / / / / / / / / / / / ^ % X X % < 8                                                 & ( ) ) ) ) ) ) ) ) ) V ) ) ) ) ) ) ) ( & X ~ - 6 r                                             s s Y Y Y Y Y Y Y Y Y Y Y Y Y Y Y Y Y Y Y Y R   ",
"  + < 8                                                                                         @   X % < 8                                                 % _ ` ` ` ` ` ` ` ` ` ` ` ` ` ` ` ` ` _ % X X % < 8                                                 & ' ] ] ] ] ] ] ] ] ] ] ] ] ] ] ] ] ] ' & X ~ - 6 r                                             s s Y Y Y Y Y Y Y Y Y Y Y Y Y Y Y Y Y Y Y Y R   ",
"  + < 8                                                                                         @   X % < 8                                                 % [ { { { { { { { { { { { { { { { { { [ % X X % < 8                                                 & } | | | | | | | | | | | | | | | | | } & X ~ - 6 r                                             s s Y Y Y Y Y Y Y Y Y Y Y Y Y Y Y Y Y Y Y Y R   ",
"  + < 8                                                                                         @   X % < 8                                                 %  ................................... .% X X % < 8                                                 & X.o.o.o.o.o.o.o.o.o.o.o.o.o.o.o.o.o.X.& X ~ - 6 r                                             s s Y Y Y Y Y Y Y Y Y Y Y Y Y Y Y Y Y Y Y Y R   ",
"  + < 8                                                                                         @   X % < 8                                                 % O.+.+.+.+.+.+.+.+.+.+.+.+.+.+.+.+.+.O.% X X % < 8                                                 & @.#.#.#.#.#.#.#.#.#.#.#.#.#.#.#.#.#.@.& X ~ - 6 r                                             s s Y Y Y Y Y Y Y Y Y Y Y Y Y Y Y Y Y Y Y Y R   ",
"  + < 8                                                                                         @   X % < 8                                                 % $.%.%.%.%.%.%.%.%.%.%.%.%.%.%.%.%.%.$.% X X % < 8                                                 & &.*.*.*.*.*.*.*.*.*.*.*.*.*.*.*.*.*.&.& X ~ - 6 r                                             s s Y Y Y Y Y Y Y Y Y Y Y Y Y Y Y Y Y Y Y Y R   ",
"  + < 8                                                                                         @   X % < 8                                                 % =.=.=.=.=.=.=.=.=.=.=.=.=.=.=.=.=.=.=.% X X % < 8                                                 & -.-.-.-.-.-.-.-.-.-.-.-.-.-.-.-.-.-.-.& X ~ - 6 r s s s s s s s s s s s s s s s s s s s s s s s s Y Y Y Y Y Y Y Y Y Y Y Y Y Y Y Y Y Y Y Y R   ",
"  ;.+ + + + + + + + + + + + + + + + + + + + + + + + + + @ @ @ @ @ @ @ @ @ @ @ @ @ @ @ @ @ @ @ @ :.  X >.% % % % % % % % % % % % % % % % % % % % % % % % % % % % % % % % % % % % % % % % % % % % % % >.X X >.% % % % % % % % % % % % % % % % % % % % % % % % % % & & & & & & & & & & & & & & & & & & & & ,.X ~ <.- - - - - - - - - - - - - - - - - - - - - - - - - - R R R R R R R R R R R R R R R R R R R R 1.  ",
"                                                                                                    2.X X X X X X X X X X X X X X X X X X X X X X X X X X X X X X X X X X X X X X X X X X X X X X X X 2.2.X X X X X X X X X X X X X X X X X X X X X X X X X X X X X X X X X X X X X X X X X X X X X X X X 2.                                                                                                    "
};
