/* XPM */
static const char *CC_DROPDOWN_xpm[] = {
/* columns rows colors chars-per-pixel */
"84 20 92 1",
"d c #19555F",
"2 c #BDEDFA",
") c #67BCE0",
"; c #C2EEFB",
"1 c #E4F7FD",
"_ c #E4F7FE",
"Z c #8CCFEB",
"T c #ACE1F7",
"b c #D3EEF8",
"u c #76C2E8",
"< c #FFFFFF",
"X c #51A3CE",
"P c #A5DDF5",
"h c #1A565D",
"q c #B4E6F7",
"7 c #B9EAF8",
"E c #72C2E3",
"# c #DBEAF6",
"` c #BCEBFC",
"+ c #5CB2DD",
"G c #D9F0FA",
"p c #A6DEF3",
"y c #C8E7F6",
"= c #EFF4F8",
"o c #5FB6DA",
"3 c #C1E3F4",
"0 c #E1F5FC",
"a c #CBE8F7",
"K c #7DC8E8",
"| c #DCEBF5",
"f c #DAF1F9",
", c #F0F5FA",
"{ c #60B7DB",
"m c #D3EDF9",
"g c #A0DBF1",
"( c #C2E4F3",
"^ c #E2F6FD",
"4 c #65B8E3",
"N c #F8FAFC",
"5 c #F8FAFD",
"A c #D6EEF9",
"i c #DBF2FA",
"~ c #6DC0E2",
": c #C0E1F3",
"Q c #B2E5F9",
"[ c #CAE3F2",
"! c #C3E5F4",
"& c #BEE1F3",
"r c #DEF3FB",
"Y c #DEF3FC",
"* c #E0EAF3",
"> c #61B5E2",
"D c #CDEAF6",
"V c #A3CDE7",
"x c #9AD8EF",
"e c #70BEE6",
"@ c #A3CDE8",
"$ c #CFDEEA",
"z c #D7EFF8",
"H c #9FD9F3",
"' c #C1E2F2",
"- c #E6F8FD",
"] c #E6F8FE",
"n c #93D4EC",
"C c #D0EBF7",
"c c #D0EBF8",
"S c #98D5F1",
"O c #4EA0D1",
"% c #E9F9FE",
"M c #91D1EF",
"F c #85CCEA",
"R c #C7E7F4",
"9 c #6ABBE5",
"v c #8ACDEE",
"} c #5EB3DE",
"L c #DBF1FB",
"W c #E0F5FD",
"k c #83C9EC",
"  c #54A5D5",
"/ c #B7E8FA",
"s c #7CC5EA",
"I c #C8E8F5",
"8 c #C3E4F5",
"6 c #E3F6FC",
"B c #85A5AC",
"j c #CDE9F7",
"l c #85A5AD",
". c #C8E2F2",
"t c #AEE4F5",
"J c #CBE9F6",
"w c #C6E5F5",
"U c #78C5E5",
/* pixels */
"                    .XXXXXXXXXXXXXXXXXXXXoOOOOOOOOOOOOOOOOOOOO+@@@@@@@@@@@@@@@@@@@@#",
"$$$$$$$$$$$$$$$$$$$$ X%%%%%%%%%%%%%%%%%%%XO&&&&&&&&&&&&&&&&&&&O********************@",
"==================== X-;;;;;;;;;;;;;;;;;-XO:>>>>>>>>>>>>>>>>>:O,,,,,,,,,,,,,,,,,,,,@",
"<<<<<<<<<<<<<<<<<<<< X1222222222222222221XO3444444444444444443O55555555555555555555@",
"<<<<<<<<<<<<<<<<<<<< X6777777777777777776XO8999999999999999998O55555555555555555555@",
"<<<<<<<<<<<<<<<<<<<< X0qqqqqqqqqqqqqqqqq0XOweeeeeeeeeeeeeeeeewO55555555555555555555@",
"<<<<<<<<<<<<<<<<<<<< XrtttttttttttttttttrXOyuuuuuuuuuuuuuuuuuyO55555555555555555555@",
"<<<<<<<<<<<<<<<<<<<< XipppppppppppppppppiXOasssssssssssssssssaO55555555555555555555@",
"<<<<<<<ddddddd<<<<<< XfggggghhhhhhhgggggfXOjkkkkkkkkkkkkkkkkkjO5555555lllllll555555@",
"<<<<<<<<ddddd<<<<<<< XzxxxxxxhhhhhxxxxxxzXOcvvvvvvdddddddvvvvcO55555555lllll5555555@",
"<<<<<<<<<ddd<<<<<<<< XbnnnnnnnhhhnnnnnnnbXOmMMMMMMMdddddMMMMMmONNNNNNNNNBBBNNNNNNNNV",
"<<<<<<<<<<d<<<<<<<<< XCZZZZZZZZhZZZZZZZZCXOASSSSSSSSdddSSSSSSAONNNNNNNNNNBNNNNNNNNNV",
"<<<<<<<<<<<<<<<<<<<< XDFFFFFFFFFFFFFFFFFDXOGHHHHHHHHHdHHHHHHHGONNNNNNNNNNNNNNNNNNNNV",
"<<<<<<<<<<<<<<<<<<<< XJKKKKKKKKKKKKKKKKKJXOLPPPPPPPPPPPPPPPPPLONNNNNNNNNNNNNNNNNNNNV",
"<<<<<<<<<<<<<<<<<<<< XIUUUUUUUUUUUUUUUUUIXOYTTTTTTTTTTTTTTTTTYONNNNNNNNNNNNNNNNNNNNV",
"<<<<<<<<<<<<<<<<<<<< XREEEEEEEEEEEEEEEEERXOWQQQQQQQQQQQQQQQQQWONNNNNNNNNNNNNNNNNNNNV",
"<<<<<<<<<<<<<<<<<<<< X!~~~~~~~~~~~~~~~~~!XO^/////////////////^ONNNNNNNNNNNNNNNNNNNNV",
"<<<<<<<<<<<<<<<<<<<< X()))))))))))))))))(XO_`````````````````_ONNNNNNNNNNNNNNNNNNNNV",
"<<<<<<<<<<<<<<<<<<<< X'''''''''''''''''''XO]]]]]]]]]]]]]]]]]]]ONNNNNNNNNNNNNNNNNNNNV",
"                    [XXXXXXXXXXXXXXXXXXXX{OOOOOOOOOOOOOOOOOOOO}VVVVVVVVVVVVVVVVVVVV|"
};
