/* XPM */
static const char *SB_xpm[] = {
/* width height num_colors chars_per_pixel */
"    64    64      256            2",
/* colors */
"`` c #e2edef",
"`. c #f6f9fa",
"`# c #f6f9f9",
"`a c #f5f8f9",
"`b c #f4f8f9",
"`c c #f3f7f8",
"`d c #f2f7f8",
"`e c #f1f6f7",
"`f c #f0f5f6",
"`g c #eff4f6",
"`h c #edf3f5",
"`i c #edf2f4",
"`j c #ebf2f3",
"`k c #eaf1f2",
"`l c #e9f1f1",
"`m c #e8f0f1",
"`n c #eaeaea",
"`o c #ffffff",
"`p c #f1f1f1",
"`q c #d1e5ee",
"`r c #b1d6ef",
"`s c #9fccec",
"`t c #afd4ed",
"`u c #d7e8f0",
"`v c #d1e5ef",
"`w c #afd7f1",
"`x c #9cceef",
"`y c #add5f0",
"`z c #d6e8f1",
"`A c #cddfeb",
"`B c #a2c3e4",
"`C c #8cb5de",
"`D c #a0c2e2",
"`E c #d2e2ec",
"`F c #e3e3e3",
"`G c #d7d7d7",
"`H c #c0c0c0",
"`I c #cccccc",
"`J c #a5cfec",
"`K c #d8ecf9",
"`L c #f5fcff",
"`M c #a6cfec",
"`N c #a3d1ef",
"`O c #d7ecfa",
"`P c #94bae0",
"`Q c #a8c6e3",
"`R c #b8d1e6",
"`S c #bbd4e6",
"`T c #bed7e6",
"`U c #c1daea",
"`V c #c5deee",
"`W c #c9e2f3",
"`X c #cde5f6",
"`Y c #cfe7f7",
"`Z c #d1e9f7",
"`0 c #d2ebf7",
"`1 c #d3ecf7",
"`2 c #bbdaee",
"`3 c #95bbe0",
"`4 c #e4f5fd",
"`5 c #e1f3fc",
"`6 c #ddf1fc",
"`7 c #daf0fb",
"`8 c #d7eefa",
".` c #d4ecfa",
".. c #d2ebf9",
".# c #d0e9f8",
".a c #cfe8f7",
".b c #cee6f6",
".c c #daedf5",
".d c #d8ecf4",
".e c #d5eaf2",
".f c #d2e8f1",
".g c #cfe7f0",
".h c #cde5ef",
".i c #cbe3ef",
".j c #c8e1ef",
".k c #c7e0ef",
".l c #c5deef",
".m c #b6cfe6",
".n c #d4edf7",
".o c #b8d6ee",
".p c #3571bb",
".q c #b4d4ed",
".r c #b1d0e6",
".s c #aecde5",
".t c #666666",
".u c #bbd8ef",
".v c #3a75c0",
".w c #3a75bf",
".x c #b3d3ed",
".y c #b5d2e7",
".z c #adcce6",
".A c #adcce8",
".B c #b1d0eb",
".C c #bfdaf2",
".D c #417bc6",
".E c #b8d6f0",
".F c #407bc6",
".G c #417bc7",
".H c #b4d3ee",
".I c #b9d5ea",
".J c #b2d0e7",
".K c #adcde7",
".L c #aacae5",
".M c #b4d3ec",
".N c #777777",
".O c #4881cd",
".P c #4881ce",
".Q c #bcd9f1",
".R c #b7d7f1",
".S c #b5d3e9",
".T c #b2d0e9",
".U c #a8c8e3",
".V c #b2d0ed",
".W c #b6d5ee",
".X c #808080",
".Y c #4f87d5",
".Z c #bfdcf4",
".0 c #b7d6f1",
".1 c #5088d5",
".2 c #e9f0f1",
".3 c #b9d5eb",
".4 c #b1d0ea",
".5 c #b0cfec",
".6 c #b5d3ef",
".7 c #868686",
".8 c #dddddd",
"#` c #aecde9",
"#. c #dbedf9",
"## c #a7d0ed",
"#a c #e9f1f2",
"#b c #daeefa",
"#c c #a4d2ef",
"#d c #a9c7e4",
"#e c #bedcef",
"#f c #96bbe0",
"#g c #cfe4ee",
"#h c #a6d0ed",
"#i c #d4e7f0",
"#j c #e8f1f2",
"#k c #cee4ef",
"#l c #a4d2f0",
"#m c #d3e7f1",
"#n c #caddea",
"#o c #96bbe1",
"#p c #cfe0ec",
"#q c #d7e8f1",
"#r c #add6f0",
"#s c #d2e2ed",
"#t c #a6cfed",
"#u c #d5e7f0",
"#v c #d4e7f1",
"#w c #f5f9fa",
"#x c #f4f9f9",
"#y c #f4f7f8",
"#z c #f2f6f7",
"#A c #f1f5f7",
"#B c #eff5f6",
"#C c #eef4f5",
"#D c #edf4f5",
"#E c #edf3f3",
"#F c #ebf1f2",
"#G c #d8ebf9",
"#H c #e9f7fe",
"#I c #e6f6fd",
"#J c #e0f3fc",
"#K c #dcf2fb",
"#L c #d8effb",
"#M c #d5edfa",
"#N c #d0e8f7",
"#O c #cde4f5",
"#P c #cde3f5",
"#Q c #e8f0f2",
"#R c #e9f0f2",
"#S c #daecf9",
"#T c #d3e7f0",
"#U c #f6f8fa",
"#V c #f4f8f8",
"#W c #f2f7f7",
"#X c #f0f6f7",
"#Y c #eef4f6",
"#Z c #edf3f4",
"#0 c #ecf3f4",
"#1 c #f5f8fa",
"#2 c #f5f9f9",
"#3 c #f3f8f9",
"#4 c #f1f5f6",
"#5 c #ecf3f3",
"#6 c #f1f6f8",
"#7 c #f0f5f5",
"#8 c #eef3f4",
"a` c #ecf2f4",
"a. c #eaf2f3",
"a# c #f4f7f9",
"aa c #eff5f5",
"ab c #eaf1f3",
"ac c #f0f4f6",
"ad c #eaf2f2",
"ae c #eff4f5",
"af c #edf4f4",
"ag c #ecf2f3",
"ah c #f3f7f9",
"ai c #f1f7f7",
"aj c #f4f8fa",
"ak c #f2f6f8",
"al c #f0f5f7",
"am c #eef4f4",
"an c #eaf0f2",
"ao c #e8f1f1",
"ap c #eaf1f1",
"aq c #000000",
"ar c #000000",
"as c #000000",
"at c #000000",
"au c #000000",
"av c #000000",
"aw c #000000",
"ax c #000000",
"ay c #000000",
"az c #000000",
"aA c #000000",
"aB c #000000",
"aC c #000000",
"aD c #000000",
"aE c #000000",
"aF c #000000",
"aG c #000000",
"aH c #000000",
"aI c #000000",
"aJ c #000000",
"aK c #000000",
"aL c #000000",
"aM c #000000",
"aN c #000000",
"aO c #000000",
"aP c #000000",
"aQ c #000000",
"aR c #000000",
"aS c #000000",
"aT c #000000",
"aU c #000000",
"aV c #000000",
"aW c #000000",
"aX c #000000",
"aY c #000000",
"aZ c #000000",
"a0 c #000000",
"a1 c #000000",
"a2 c #000000",
"a3 c #000000",
"a4 c #000000",
"a5 c #000000",
"a6 c #000000",
"a7 c #000000",
"a8 c #000000",
/* pixels */
"```.`#`a`b`c`d`e`f`g`h`i`j`k`l`m```.`#`a`b`c`d`e`f`g`h`i`j`k`l`m```.`#`a`b`c`d`e`f`g`h`i`j`k`l`m`n`o`o`p`p`p`p`p`p`p`p`p`p`p`n`n",
"`q`r`s`s`s`s`s`s`s`s`s`s`s`t`u`m`v`w`x`x`x`x`x`x`x`x`x`x`x`y`z`m`A`B`C`C`C`C`C`C`C`C`C`C`C`D`E`m`F`G`H`H`H`H`H`H`H`H`H`H`H`I`F`n",
"`J`K`L`L`L`L`L`L`L`L`L`L`L`K`M`m`N`O`L`L`L`L`L`L`L`L`L`L`L`O`N`m`P`Q`R`S`T`U`V`W`X`Y`Z`0`1`2`3`m`I`n`o`o`o`o`o`o`o`o`o`o`o`n`I`n",
"`s`L`4`5`6`7`8.`...#.a.b`X`L`s`m`x`L.c.d.e.f.g.h.i.j.k.l`V`L`x`m`C.m`R`S`T`U`V`W`X`Y`Z`0`1.n`C`m`H`o`p`p`n`n`n`n`F`F`F`F`F`o`H`n",
"`s`L`4`5`6`7`8.`...#.a.b`X`L`s`m`x`L.c.d.e.f.g.h.i.j.k.l`V`L`x`m`C.m`R`S`T`U`V`W`X`Y`Z`0`1.n`C`m`H`o`p`p`n`n`n`n`F`F`F`F`F`o`H`n",
"`s`L`4`5`6`7`8.`...#.a.b`X`L`s`m`x`L.c.d.e.f.g.h.i.j.k.l`V`L`x`m`C.m`R`S`T`U`V`W`X`Y`Z`0`1.n`C`m`H`o`p`p`n`n`n`n`F`F`F`F`F`o`H`n",
"`s`L`4`5`6`7.o.p.q.#.a.b`X`L`s`m`x`L.c.d.e.f.r.p.s.j.k.l`V`L`x`m`C.m`R`S`T`U`V`W`X`Y`Z`0`1.n`C`m`H`o`p`p`n`n`G.t`I`F`F`F`F`o`H`n",
"`s`L`4`5`6.u.v.w.v.x.a.b`X`L`s`m`x`L.c.d.e.y.v.w.v.z.k.l`V`L`x`m`C.m`R`S`T`U`V.A.p.B`Z`0`1.n`C`m`H`o`p`p`n`G.t.t.t`I`F`F`F`o`H`n",
"`s`L`4`5.C.D.D.E.F.G.H.b`X`L`s`m`x`L.c.d.I.D.D.J.F.G.K.l`V`L`x`m`C.m`R`S`T`U.L.v.w.v.M`0`1.n`C`m`H`o`p`p`G.N.N`G.N.N`I`F`F`o`H`n",
"`s`L`4`5.O.P.Q.`.R.P.P.b`X`L`s`m`x`L.c.d.O.P.S.h.T.P.P.l`V`L`x`m`C.m`R`S`T.U.D.D.V.F.G.W`1.n`C`m`H`o`p`p.X.X`G`n`G.X.X`F`F`o`H`n",
"`s`L`4`5.Y.Z`8.`...0.1.b`X`L`s.2`x`L.c.d.Y.3.g.h.i.4.1.l`V`L`x.2`C.m`R`S`T.O.P.5`X.6.P.P`1.n`C.2`H`o`p`p.7.8`n`n`F`G.7`F`F`o`H`n",
"`s`L`4`5`6`7`8.`...#.a.b`X`L`s.2`x`L.c.d.e.f.g.h.i.j.k.l`V`L`x.2`C.m`R`S`T.Y#``W`X`Y.E.1`1.n`C.2`H`o`p`p`n`n`n`n`F`F`F`F`F`o`H`n",
"`s`L`4`5`6`7`8.`...#.a.b`X`L`s.2`x`L.c.d.e.f.g.h.i.j.k.l`V`L`x.2`C.m`R`S`T`U`V`W`X`Y`Z`0`1.n`C.2`H`o`p`p`n`n`n`n`F`F`F`F`F`o`H`n",
"`s`L`4`5`6`7`8.`...#.a.b`X`L`s.2`x`L.c.d.e.f.g.h.i.j.k.l`V`L`x.2`C.m`R`S`T`U`V`W`X`Y`Z`0`1.n`C.2`H`o`p`p`n`n`n`n`F`F`F`F`F`o`H`n",
"`M#.`L`L`L`L`L`L`L`L`L`L`L#.###a`N#b`L`L`L`L`L`L`L`L`L`L`L#b#c#a`3#d`R`S`T`U`V`W`X`Y`Z`0`1#e#f#a`I`n`o`o`o`o`o`o`o`o`o`o`o`n`I`n",
"#g##`s`s`s`s`s`s`s`s`s`s`s#h#i#j#k#l`x`x`x`x`x`x`x`x`x`x`x`N#m#j#n#o`C`C`C`C`C`C`C`C`C`C`C`3#p#j`F`I`H`H`H`H`H`H`H`H`H`H`H`I`F`n",
"`q`r`s`s`s`s`s`s`s`s`s`s`s`t#q#j`v`w`x`x`x`x`x`x`x`x`x`x`x#r`z#j`A`B`C`C`C`C`C`C`C`C`C`C`C`D#s#j`F`G`H`H`H`H`H`H`H`H`H`H`H`I`F`n",
"`J`K`L`L`L`L`L`L`L`L`L`L`L`K#t#j`N`O`L`L`L`L`L`L`L`L`L`L`L`O`N#j`P`Q`R`S`T`U`V`W`X`Y`Z`0`1`2`3#j`I`n`o`o`o`o`o`o`o`o`o`o`o`n`I`n",
"`s`L`4`5`6`7`8.`...#.a.b`X`L`s#j`x`L.c.d.e.f.g.h.i.j.k.l`V`L`x#j`C.m`R`S`T`U`V`W`X`Y`Z`0`1.n`C#j`H`o`p`p`n`n`n`n`F`F`F`F`F`o`H`n",
"`s`L`4`5`6`7`8.`...#.a.b`X`L`s#j`x`L.c.d.e.f.g.h.i.j.k.l`V`L`x#j`C.m`R`S`T`U`V`W`X`Y`Z`0`1.n`C#j`H`o`p`p`n`n`n`n`F`F`F`F`F`o`H`n",
"`s`L`4`5`6`7`8.`...#.a.b`X`L`s#j`x`L.c.d.e.f.g.h.i.j.k.l`V`L`x#j`C.m`R`S`T`U`V`W`X`Y`Z`0`1.n`C#j`H`o`p`p`n`n`n`n`F`F`F`F`F`o`H`n",
"`s`L`4`5.Y.Z`8.`...0.1.b`X`L`s.2`x`L.c.d.Y.3.g.h.i.4.1.l`V`L`x.2`C.m`R`S`T`U`V`W`X`Y`Z`0`1.n`C.2`H`o`p`p.7.8`n`n`F`G.7`F`F`o`H`n",
"`s`L`4`5.O.P.Q.`.R.P.P.b`X`L`s.2`x`L.c.d.O.P.S.h.T.P.P.l`V`L`x.2`C.m`R`S`T.Y#``W`X`Y.E.1`1.n`C.2`H`o`p`p.X.X`G`n`G.X.X`F`F`o`H`n",
"`s`L`4`5.C.D.D.E.F.G.H.b`X`L`s.2`x`L.c.d.I.D.D.J.F.G.K.l`V`L`x.2`C.m`R`S`T.O.P.5`X.6.P.P`1.n`C.2`H`o`p`p`G.N.N`G.N.N`I`F`F`o`H`n",
"`s`L`4`5`6.u.v.w.v.x.a.b`X`L`s.2`x`L.c.d.e.y.v.w.v.z.k.l`V`L`x.2`C.m`R`S`T.U.D.D.V.F.G.W`1.n`C.2`H`o`p`p`n`G.t.t.t`I`F`F`F`o`H`n",
"`s`L`4`5`6`7.o.p.q.#.a.b`X`L`s.2`x`L.c.d.e.f.r.p.s.j.k.l`V`L`x.2`C.m`R`S`T`U.L.v.w.v.M`0`1.n`C.2`H`o`p`p`n`n`G.t`I`F`F`F`F`o`H`n",
"`s`L`4`5`6`7`8.`...#.a.b`X`L`s.2`x`L.c.d.e.f.g.h.i.j.k.l`V`L`x.2`C.m`R`S`T`U`V.A.p.B`Z`0`1.n`C.2`H`o`p`p`n`n`n`n`F`F`F`F`F`o`H`n",
"`s`L`4`5`6`7`8.`...#.a.b`X`L`s.2`x`L.c.d.e.f.g.h.i.j.k.l`V`L`x.2`C.m`R`S`T`U`V`W`X`Y`Z`0`1.n`C.2`H`o`p`p`n`n`n`n`F`F`F`F`F`o`H`n",
"`s`L`4`5`6`7`8.`...#.a.b`X`L`s.2`x`L.c.d.e.f.g.h.i.j.k.l`V`L`x.2`C.m`R`S`T`U`V`W`X`Y`Z`0`1.n`C.2`H`o`p`p`n`n`n`n`F`F`F`F`F`o`H`n",
"`M#.`L`L`L`L`L`L`L`L`L`L`L#.##.2`N#b`L`L`L`L`L`L`L`L`L`L`L#b#c.2`3#d`R`S`T`U`V`W`X`Y`Z`0`1#e#f.2`I`n`o`o`o`o`o`o`o`o`o`o`o`n`I`n",
"#g##`s`s`s`s`s`s`s`s`s`s`s#h#u.2#k#l`x`x`x`x`x`x`x`x`x`x`x`N#v.2#n#o`C`C`C`C`C`C`C`C`C`C`C`3#p.2`F`I`H`H`H`H`H`H`H`H`H`H`H`I`F`n",
"```.#w#x#y`c#z#A#B#C#D#E`j#F#a.2```.#w#x#y`c#z#A#B#C#D#E`j#F#a.2```.#w#x#y`c#z#A#B#C#D#E`j#F#a.2`n`o`o`o`p`p`p`p`p`p`p`p`p`p`n`n",
"`q`r`s`s`s`s`s`s`s`s`s`s`s`t#q.2`v`w`x`x`x`x`x`x`x`x`x`x`x`y`z.2`A`B`C`C`C`C`C`C`C`C`C`C`C`D#s.2`F`G`H`H`H`H`H`H`H`H`H`H`H`I`F`n",
"`J#G`L`L`L`L`L`L`L`L`L`L`L#G#t.2`N`O`L`L`L`L`L`L`L`L`L`L`L`O`N.2`P`Q`R`S`T`U`V`W`X`Y`Z`0`1`2`3.2`I`n`o`o`o`o`o`o`o`o`o`o`o`n`I`n",
"`s`L#H#I#J#K#L#M..#N.b#O#P`L`s.2`x`L.c.d.e.f.g.h.i.j.k.l`V`L`x.2`C.m`R`S`T`U`V`W`X`Y`Z`0`1.n`C.2`H`o`p`p`p`n`n`n`F`F`F`F`F`o`H`n",
"`s`L#H#I#J#K#L#M..#N.b#O#P`L`s`m`x`L.c.d.e.f.g.h.i.j.k.l`V`L`x`m`C.m`R`S`T`U`V`W`X`Y`Z`0`1.n`C`m`H`o`p`p`p`n`n`n`F`F`F`F`F`o`H`n",
"`s`L#H#I#J#K#L#M..#N.b#O#P`L`s`m`x`L.c.d.e.f.g.h.i.j.k.l`V`L`x`m`C.m`R`S`T`U`V`W`X`Y`Z`0`1.n`C`m`H`o`p`p`p`n`n`n`F`F`F`F`F`o`H`n",
"`s`L#H#I#J#K#L#M..#N.b#O#P`L`s`m`x`L.c.d.e.f.g.h.i.j.k.l`V`L`x`m`C.m`R`S`T`U`V`W`X`Y`Z`0`1.n`C`m`H`o`p`p`p`n`n`n`F`F`F`F`F`o`H`n",
"`s`L#H#I#J#K#L#M..#N.b#O#P`L`s`m`x`L.c.d.e.f.g.h.i.j.k.l`V`L`x`m`C.m`R`S`T`U`V`W`X`Y`Z`0`1.n`C`m`H`o`p`p`p`n`n`n`F`F`F`F`F`o`H`n",
"`s`L#H#I#J#K#L#M..#N.b#O#P`L`s`m`x`L.c.d.e.f.g.h.i.j.k.l`V`L`x`m`C.m`R`S`T`U`V`W`X`Y`Z`0`1.n`C`m`H`o`p`p`p`n`n`n`F`F`F`F`F`o`H`n",
"`s`L#H#I#J#K#L#M..#N.b#O#P`L`s#Q`x`L.c.d.e.f.g.h.i.j.k.l`V`L`x#Q`C.m`R`S`T`U`V`W`X`Y`Z`0`1.n`C#Q`H`o`p`p`p`n`n`n`F`F`F`F`F`o`H`n",
"`s`L#H#I#J#K#L#M..#N.b#O#P`L`s#R`x`L.c.d.e.f.g.h.i.j.k.l`V`L`x#R`C.m`R`S`T`U`V`W`X`Y`Z`0`1.n`C#R`H`o`p`p`p`n`n`n`F`F`F`F`F`o`H`n",
"`s`L#H#I#J#K#L#M..#N.b#O#P`L`s#R`x`L.c.d.e.f.g.h.i.j.k.l`V`L`x#R`C.m`R`S`T`U`V`W`X`Y`Z`0`1.n`C#R`H`o`p`p`p`n`n`n`F`F`F`F`F`o`H`n",
"`s`L#H#I#J#K#L#M..#N.b#O#P`L`s#R`x`L.c.d.e.f.g.h.i.j.k.l`V`L`x#R`C.m`R`S`T`U`V`W`X`Y`Z`0`1.n`C#R`H`o`p`p`p`n`n`n`F`F`F`F`F`o`H`n",
"`s`L#H#I#J#K#L#M..#N.b#O#P`L`s#R`x`L.c.d.e.f.g.h.i.j.k.l`V`L`x#R`C.m`R`S`T`U`V`W`X`Y`Z`0`1.n`C#R`H`o`p`p`p`n`n`n`F`F`F`F`F`o`H`n",
"`s`L#H#I#J#K#L#M..#N.b#O#P`L`s#R`x`L.c.d.e.f.g.h.i.j.k.l`V`L`x#R`C.m`R`S`T`U`V`W`X`Y`Z`0`1.n`C#R`H`o`p`p`p`n`n`n`F`F`F`F`F`o`H`n",
"`M#S`L`L`L`L`L`L`L`L`L`L`L#S##.2`N#b`L`L`L`L`L`L`L`L`L`L`L#b#c.2`3#d`R`S`T`U`V`W`X`Y`Z`0`1#e#f.2`I`n`o`o`o`o`o`o`o`o`o`o`o`n`I`n",
"#g##`s`s`s`s`s`s`s`s`s`s`s#t#i.2#k#l`x`x`x`x`x`x`x`x`x`x`x`N#T.2#n#o`C`C`C`C`C`C`C`C`C`C`C`3#p.2`F`I`H`H`H`H`H`H`H`H`H`H`H`I`F`n",
"```.`#`a`b`c`d`e`f`g`h`i`j`k`l`m```.`#`a`b`c`d`e`f`g`h`i`j`k`l`m```.`#`a`b`c`d`e`f`g`h`i`j`k`l`m`n`o`o`p`p`p`p`p`p`p`p`p`p`p`n`n",
"```.#U`b#V`c#W#X`f#Y#Z#0`j`k#R`m```.#U`b#V`c#W#X`f#Y#Z#0`j`k#R`m```.#U`b#V`c#W#X`f#Y#Z#0`j`k#R`m`n`o`o`p`p`p`p`p`p`p`p`p`p`p`n`n",
"```.#1#2#3`c#z#4`g`g#Z#5`j`k#a.2```.#1#2#3`c#z#4`g`g#Z#5`j`k#a.2```.#1#2#3`c#z#4`g`g#Z#5`j`k#a.2`n`o`o`o`p`p`p`p`p`p`p`p`p`p`n`n",
"```.#1#1#y`c#6#A#7#Y#8a``ja.#a#j```.#1#1#y`c#6#A#7#Y#8a``ja.#a#j```.#1#1#y`c#6#A#7#Y#8a``ja.#a#j`n`o`o`o`p`p`p`p`p`p`p`p`p`p`n`n",
"```.`#`aa#`c#6`f`gaa#Z#5`jab`l.2```.`#`aa#`c#6`f`gaa#Z#5`jab`l.2```.`#`aa#`c#6`f`gaa#Z#5`jab`l.2`n`o`o`p`p`p`p`p`p`p`p`p`p`p`n`n",
"```.`##1a#`c#W#Aac#B#Za``jad`k.2```.`##1a#`c#W#Aac#B#Za``jad`k.2```.`##1a#`c#W#Aac#B#Za``jad`k.2`n`o`o`o`p`p`p`p`p`p`p`p`p`p`p`n",
"```.#w#x#y`c#z#A#B#C#D#E`j#F#a.2```.#w#x#y`c#z#A#B#C#D#E`j#F#a.2```.#w#x#y`c#z#A#B#C#D#E`j#F#a.2`n`o`o`o`p`p`p`p`p`p`p`p`p`p`n`n",
"```.`.`b`b`d#z#A`faeafag`j`k#a`m```.`.`b`b`d#z#A`faeafag`j`k#a`m```.`.`b`b`d#z#A`faeafag`j`k#a`m`n`o`o`p`p`p`p`p`p`p`p`p`p`p`n`n",
"```.`a#1`b`c#z#A#B#C#Z#5`jad#R#R```.`a#1`b`c#z#A#B#C#Z#5`jad#R#R```.`a#1`b`c#z#A#B#C#Z#5`jad#R#R`n`o`p`o`p`p`p`p`p`p`p`p`p`p`n`n",
"```.`.`a#3ahai`e`f#C#Z#0agab`l.2```.`.`a#3ahai`e`f#C#Z#0agab`l.2```.`.`a#3ahai`e`f#C#Z#0agab`l.2`n`o`o`p`p`p`p`p`p`p`p`p`p`p`n`n",
"```.#w`a#3`c#z#A`gaeaf`iag`k`l.2```.#w`a#3`c#z#A`gaeaf`iag`k`l.2```.#w`a#3`c#z#A`gaeaf`iag`k`l.2`n`o`o`p`p`p`p`p`p`p`p`p`p`p`n`n",
"```.#waj`b`cakal`f#Cam#0agadan#Q```.#waj`b`cakal`f#Cam#0agadan#Q```.#waj`b`cakal`f#Cam#0agadan#Q`n`o`o`p`p`p`p`p`p`p`p`p`p`p`n`n",
"```.#U`a#y`c#zal`fae#Dag`jad#aao```.#U`a#y`c#zal`fae#Dag`jad#aao```.#U`a#y`c#zal`fae#Dag`jad#aao`n`o`o`p`p`p`p`p`p`p`p`p`p`p`n`n",
"```.#2#2#V`c#W`e#B#C#Zag`jab#aao```.#2#2#V`c#W`e#B#C#Zag`jab#aao```.#2#2#V`c#W`e#B#C#Zag`jab#aao`n`o`o`o`p`p`p`p`p`p`p`p`p`p`n`n",
"```.`a`aa#`c#z#Aaaae#Z#5`jabap`m```.`a`aa#`c#z#Aaaae#Z#5`jabap`m```.`a`aa#`c#z#Aaaae#Z#5`jabap`m`n`o`p`p`p`p`p`p`p`p`p`p`p`p`p`n",
"```.#1`b`b`c#z#X`f#C#Z#5`jad.2.2```.#1`b`b`c#z#X`f#C#Z#5`jad.2.2```.#1`b`b`c#z#X`f#C#Z#5`jad.2.2`n`o`o`p`p`p`p`p`p`p`p`p`p`p`n`n"
};
